<svg width="24" height="24" viewBox="0 0 24 24" fill="none" xmlns="http://www.w3.org/2000/svg">
<path opacity="0.6" d="M10.6377 3.50488C11.3987 2.85034 12.5248 2.82998 13.3096 3.45703L13.3125 3.45898L19.9658 8.7334V8.73438C20.3055 9.01653 20.5 9.43179 20.5 9.86719V18.5781C20.4999 19.2191 20.2427 19.8351 19.7832 20.29C19.3236 20.7451 18.6992 21.0015 18.0469 21H16.083C16.0202 21 15.9619 20.9746 15.9199 20.9326C15.8782 20.8909 15.856 20.8359 15.8564 20.7803V17.7158C15.8564 17.0734 15.5989 16.4588 15.1436 16.0068C14.6885 15.5551 14.0731 15.3027 13.4326 15.3027H10.5586C9.22693 15.3027 8.13477 16.3761 8.13477 17.7158V20.0498L8.11328 20.0576L8.1084 20.7754C8.10729 20.893 8.00823 21 7.87207 21H5.95605C4.59285 20.9999 3.50022 19.9049 3.5 18.5693V9.89062C3.51041 9.44809 3.72107 9.03083 4.07715 8.75684L4.08398 8.75098L4.0918 8.74512L10.6104 3.52734L10.624 3.5166L10.6377 3.50488Z" stroke="black" stroke-width="2"/>
</svg>
