<svg width="16" height="15" viewBox="0 0 16 15" fill="none" xmlns="http://www.w3.org/2000/svg">
<path fill-rule="evenodd" clip-rule="evenodd" d="M10.087 0.695652H5.91309C5.72099 0.695652 5.56526 0.539925 5.56526 0.347826C5.56526 0.155727 5.72099 0 5.91309 0H10.087C10.2791 0 10.4348 0.155727 10.4348 0.347826C10.4348 0.539925 10.2791 0.695652 10.087 0.695652ZM16 2.08685V13.9129C16 14.2971 15.6885 14.6086 15.3043 14.6086H0.695652C0.311454 14.6086 0 14.2971 0 13.9129V2.08685C0 1.70265 0.311454 1.3912 0.695652 1.3912H15.3043C15.6885 1.3912 16 1.70265 16 2.08685ZM7.99994 4.86955C7.42364 4.86955 6.95646 5.33673 6.95646 5.91302C6.95711 6.48905 7.42391 6.95585 7.99994 6.9565C8.57624 6.9565 9.04342 6.48932 9.04342 5.91302C9.04342 5.33673 8.57624 4.86955 7.99994 4.86955ZM5.58999 11.1303C5.76442 9.93316 6.7902 9.04488 8.00001 9.04337C9.2098 9.04491 10.2356 9.93318 10.41 11.1303H5.58999ZM7.99987 7.65233C7.03938 7.65233 6.26074 6.87369 6.26074 5.9132C6.26074 4.9527 7.03938 4.17407 7.99987 4.17407C8.96037 4.17407 9.739 4.9527 9.739 5.9132C9.739 6.87369 8.96037 7.65233 7.99987 7.65233ZM11.1304 11.4781C11.1304 9.7492 9.72887 8.34766 7.99998 8.34766C6.27109 8.34766 4.86955 9.7492 4.86955 11.4781C4.87457 11.5946 4.88618 11.7107 4.90433 11.8259H11.0956C11.1138 11.7107 11.1254 11.5946 11.1304 11.4781Z" fill="#333333"/>
</svg>
