<svg width="40" height="16" viewBox="0 0 40 16" fill="none" xmlns="http://www.w3.org/2000/svg">
<path d="M2.66673 9.33333H4.00007H5.3334V11.3333V14C5.3334 14.3687 5.6314 14.6667 6.00006 14.6667H10.0001C10.3687 14.6667 10.6667 14.3687 10.6667 14V10.6667V9.33333H11.3334H13.3334C13.5901 9.33333 13.8227 9.18599 13.9341 8.95599C14.0447 8.72466 14.0141 8.45066 13.8541 8.24999L8.52073 1.58333C8.26673 1.26666 7.7334 1.26666 7.4794 1.58333L2.14607 8.24999C1.98607 8.45066 1.9554 8.72466 2.06606 8.95599C2.1774 9.18599 2.41006 9.33333 2.66673 9.33333Z" fill="#00B907"/>
<path d="M22.3125 9.45833H24.4062V8.61458H22.3125V6.41667H21.4687V8.61458H19.375V9.45833H21.4687V11.6562H22.3125V9.45833ZM25.6771 6.65625H26.5833C26.5833 5.8125 27.2812 5.17708 28.2083 5.17708C29.0677 5.17708 29.6198 5.76562 29.6198 6.50521C29.6198 7.13021 29.3854 7.53646 28.3698 8.59375L25.7239 11.3542V12H30.6823V11.1667H27.0104V11.1458L28.7969 9.3125C30.1771 7.89583 30.5573 7.27604 30.5573 6.44792C30.5573 5.30729 29.5989 4.35937 28.2083 4.35937C26.7604 4.35937 25.6771 5.33854 25.6771 6.65625ZM32.9792 7.93229C33.9271 7.93229 34.5573 7.22396 34.5573 6.16667C34.5573 5.10417 33.9271 4.39583 32.9792 4.39583C32.0312 4.39583 31.3958 5.10417 31.3958 6.16667C31.3958 7.22396 32.0312 7.93229 32.9792 7.93229ZM33.1302 12L38.3594 4.48437H37.5156L32.276 12H33.1302ZM32.9792 7.3125C32.4375 7.3125 32.0729 6.85417 32.0729 6.16667C32.0729 5.47917 32.4375 5.02083 32.9792 5.02083C33.5208 5.02083 33.8802 5.47917 33.8802 6.16667C33.8802 6.85417 33.5208 7.3125 32.9792 7.3125ZM37.6614 12.0833C38.6094 12.0833 39.2396 11.375 39.2396 10.3177C39.2396 9.25521 38.6094 8.54687 37.6614 8.54687C36.7135 8.54687 36.0781 9.25521 36.0781 10.3177C36.0781 11.375 36.7135 12.0833 37.6614 12.0833ZM37.6614 11.4635C37.1198 11.4635 36.7552 11.0052 36.7552 10.3177C36.7552 9.63021 37.1198 9.17187 37.6614 9.17187C38.2031 9.17187 38.5625 9.63021 38.5625 10.3177C38.5625 11.0052 38.2031 11.4635 37.6614 11.4635Z" fill="#00B907"/>
</svg>
